<svg xmlns="http://www.w3.org/2000/svg" viewBox="0 0 32 32" fill="none">
  <rect width="32" height="32" rx="7" fill="#0f172a"/>
  <defs>
    <linearGradient id="b" x1="4" y1="4" x2="28" y2="28" gradientUnits="userSpaceOnUse">
      <stop stop-color="#93c5fd"/>
      <stop offset="1" stop-color="#1d4ed8"/>
    </linearGradient>
  </defs>
  <path d="M4 22c4-1 8-1 12 0 3 1 6 2 10 3" stroke="#78350f" stroke-width="1.2" stroke-linecap="round" opacity="0.6"/>
  <path d="M10 18c2-3 5-5 9-5 3 0 5 1 7 3 1 2 0 4-2 5-2 1-4 1-6 0-2-2-4-4-6-5-2 2-2 4-2 2Z" fill="url(#b)"/>
  <path d="M18 12c2-2 4-3 6-3 1 0 2 1 2 2 0 1-1 2-2 2" fill="url(#b)"/>
  <path d="M21 11.5 24 10.5 25.5 11.5" stroke="url(#b)" stroke-width="0.8" stroke-linecap="round"/>
  <path d="M8 20c-1 2-2 4-3 6 2-1 3-2 4-4" fill="url(#b)" opacity="0.7"/>
</svg>
